<?xml version="1.0"?>
<svg width="2048" height="2048" xmlns="http://www.w3.org/2000/svg" xmlns:svg="http://www.w3.org/2000/svg" preserveAspectRatio="xMidYMid meet" version="1.0">
 <g class="layer">
  <title>Layer 1</title>
  <g fill="#000000" id="svg_1" transform="matrix(0.304974 0 0 -0.281007 -18.0764 -11.6444)">
   <path d="m4395,-56c-81,-16 -174,-51 -265,-101c-230,-125 -482,-407 -634,-712c-60,-119 -127,-284 -156,-384c-23,-76 -23,-77 -64,-88c-23,-5 -75,-21 -116,-35c-41,-13 -80,-24 -86,-24c-6,0 -65,62 -132,138c-344,393 -698,624 -1062,693c-36,7 -119,12 -185,12c-195,0 -349,-54 -471,-166c-110,-101 -164,-224 -164,-376c0,-167 55,-302 176,-430c192,-204 454,-301 863,-320l145,-6l-70,-53c-103,-79 -322,-289 -433,-416c-319,-363 -581,-788 -752,-1218c-22,-54 -39,-99 -39,-101c0,-3 39,35 88,83c170,169 387,268 697,317c83,13 168,18 345,17c349,0 565,-30 1285,-174c615,-124 878,-156 1198,-147c318,8 521,55 754,171c206,104 356,228 494,412l69,92l-26,89c-250,866 -793,1404 -1556,1537l-37,7l112,57c330,171 531,376 583,597c21,92 15,219 -15,297c-72,185 -298,282 -546,232zm-615,-2121c232,-75 299,-515 107,-707c-62,-61 -100,-79 -172,-80c-131,-1 -232,92 -280,257c-24,84 -17,261 13,339c35,87 82,142 153,177c71,35 105,38 179,14zm1450,-42c49,-25 107,-105 130,-180c52,-165 1,-382 -108,-459c-110,-79 -251,-26 -318,120c-27,60 -29,70 -29,198c0,118 3,141 22,183c67,145 185,199 303,138z" id="svg_2"/>
   <path d="m5630,-3831c-107,-153 -344,-312 -595,-397c-178,-61 -266,-74 -540,-79c-216,-4 -271,-2 -407,16c-319,43 -423,66 -1315,295c-242,62 -446,105 -654,137c-121,19 -187,23 -409,23c-278,1 -353,-7 -530,-55c-118,-31 -286,-118 -350,-180l-55,-53l-110,-2c-128,-2 -200,-20 -297,-71c-81,-42 -183,-138 -221,-206c-53,-96 -70,-167 -65,-270c3,-85 8,-103 41,-170c26,-52 54,-90 89,-122c53,-47 134,-95 163,-95c22,0 20,-4 -28,-63c-44,-54 -127,-187 -164,-262c-24,-48 -77,-210 -92,-280c-49,-230 -38,-497 30,-726c143,-482 584,-856 1096,-929c105,-15 4344,-9 4387,6l29,10l-54,64c-119,140 -429,512 -698,835c-156,187 -286,341 -290,342c-3,2 -6,-237 -6,-530l0,-532l-237,-3l-238,-2l0,1155l0,1155l240,0l240,0l0,-552l1,-553l20,28c12,15 78,94 148,175c69,81 158,185 197,232c257,307 504,602 535,638l36,43l282,-3c154,-2 281,-2 281,-2c0,1 -34,53 -76,115c-85,126 -185,326 -234,464c-40,113 -88,309 -96,392c-4,35 -10,63 -13,63c-3,-1 -22,-24 -41,-51zm-4040,-974c160,-26 333,-94 465,-182l53,-35l-146,-181c-80,-100 -148,-181 -151,-180c-3,1 -28,15 -56,32c-159,96 -405,116 -589,47c-359,-135 -533,-548 -394,-933c70,-193 221,-338 427,-411c68,-24 90,-27 211,-27c150,0 229,18 345,78c33,17 63,32 66,32c3,0 54,-58 114,-130c59,-71 125,-148 146,-170c22,-23 39,-43 39,-46c0,-4 -27,-25 -60,-48c-377,-264 -957,-247 -1345,41c-512,379 -625,1118 -251,1642c254,356 695,540 1126,471zm1170,-777c0,-599 3,-775 14,-819c26,-113 99,-198 205,-241c55,-22 67,-23 479,-26l422,-3l0,-230l0,-229l-412,0c-520,0 -592,9 -768,97c-79,39 -110,63 -186,138c-105,104 -157,194 -201,346l-27,94l-4,818l-3,817l240,0l241,0l0,-762z" id="svg_3"/>
   <path d="m6018,-4927c-175,-202 -331,-386 -572,-678c-137,-165 -264,-317 -284,-337l-35,-37l24,-29c13,-16 82,-99 154,-183c71,-85 248,-296 394,-469c344,-409 405,-480 412,-480c19,0 198,147 280,230c187,189 305,415 365,701c24,114 24,335 0,444c-57,261 -148,419 -373,644c-74,74 -167,170 -207,214l-73,79l-85,-99z" id="svg_4"/>
  </g>
 </g>

</svg>